# xmcd
#
# Track frame offsets:
# 150
# 17991
# 33164
# 52895
# 68474
# 87507
# 102089
# 120569
# 133709
# 149278
# 165212
# 179711
# 194561
# 211052
#
# Disc length: 3005 seconds
#
#
# Revision: 0
# Processed by: cddbd v1.5.2PL0 Copyright (c) Steve Scherf et al.
# Submitted via: FreeRIP 2.96 
#
DISCID=bb0bbb0e
DTITLE=Leland Martin - I'll Pick The Guitar,You Drive The Truck
DYEAR=2008
DGENRE=Country
TTITLE0=Royal Purple Peterbilt
TTITLE1=Highway Angels
TTITLE2=Sail My Boat
TTITLE3=Theodore's Thoughts
TTITLE4=Shake A Truck Drivers Hand
TTITLE5=I'll Pick The Guitar
TTITLE6=Carry On
TTITLE7=Thank God For Satellite Radio
TTITLE8=1957
TTITLE9=Renegade Joe
TTITLE10=Today Ain't Your Day
TTITLE11=High Heels For 18 Wheels
TTITLE12=Wild Bill
TTITLE13=Mandy's Song
EXTD=
EXTT0=
EXTT1=
EXTT2=
EXTT3=
EXTT4=
EXTT5=
EXTT6=
EXTT7=
EXTT8=
EXTT9=
EXTT10=
EXTT11=
EXTT12=
EXTT13=
PLAYORDER=
